

<svg version="1.1" id="Layer_1" xmlns="http://www.w3.org/2000/svg" xmlns:xlink="http://www.w3.org/1999/xlink" x="0px" y="0px"
	 viewBox="0 0 960 130" style="enable-background:new 0 0 960 130;" xml:space="preserve">
<style type="text/css">
	.st0{fill:#fff;stroke:#00695c;stroke-width:5;stroke-miterlimit:10;}
  	path{
			stroke-dasharray: 720;
			animation: animate 3s infinite;

		}

		@keyframes animate{
			0%{
				stroke-dashoffset:0;
			}
			50%{
				
                stroke-dashoffset:730;
			}
			100%{
				stroke-dashoffset:0;
			}
    
		}
</style>
<g id="XMLID_1_">
	<path id="XMLID_3_" class="st0" d="M4.2,9.1h21.3l27.4,78.7L80.6,9.1h21.3L62.7,119.9h-20L4.2,9.1z"/>
	<path id="XMLID_5_" class="st0" d="M151.7,9.1h21l41.9,110.8h-21.5l-8.5-22.8h-44.4l-8.9,22.8h-21.5L151.7,9.1z M162.4,38.5
		l-14.6,38h29.1L162.4,38.5z"/>
	<path id="XMLID_8_" class="st0" d="M330.6,28.6l-14.5,14.1c-9.9-10.6-20.9-15.9-33.3-15.9c-10.4,0-19.2,3.6-26.3,10.9
		c-7.1,7.2-10.7,16.2-10.7,26.8c0,7.4,1.6,13.9,4.7,19.7c3.2,5.7,7.6,10.2,13.4,13.5c5.8,3.3,12.2,4.9,19.2,4.9
		c6,0,11.5-1.1,16.5-3.4c5-2.3,10.4-6.4,16.4-12.5l14,14.9c-8,8-15.6,13.5-22.8,16.6c-7.2,3.1-15.3,4.6-24.5,4.6
		c-16.9,0-30.8-5.5-41.5-16.4c-10.8-10.9-16.2-24.9-16.2-42c0-11,2.5-20.9,7.4-29.5c4.9-8.6,11.9-15.5,21.1-20.7
		c9.1-5.2,19-7.8,29.6-7.8c9,0,17.6,1.9,25.9,5.8C317.5,16,324.6,21.5,330.6,28.6z"/>
	<path id="XMLID_10_" class="st0" d="M382,9.1h21l41.9,110.8h-21.5l-8.5-22.8h-44.4l-8.9,22.8H340L382,9.1z M392.6,38.5l-14.6,38
		h29.1L392.6,38.5z"/>
	<path id="XMLID_13_" class="st0" d="M460.9,9.1h19.9L527.4,82V9.1h20.7v110.8h-19.9l-46.5-72.7v72.7h-20.7V9.1z"/>
	<path id="XMLID_15_" class="st0" d="M567.2,9.1H633l-38.8,90.5h36.2v20.3H564L602.6,30h-35.4V9.1z"/>
	<path id="XMLID_17_" class="st0" d="M681.9,9.1h21l41.9,110.8h-21.5l-8.5-22.8h-44.4l-8.9,22.8h-21.5L681.9,9.1z M692.5,38.5
		l-14.6,38H707L692.5,38.5z"/>
	<path id="XMLID_20_" class="st0" d="M759.8,6.3h18.6v10.4c0,6.6-0.8,12.3-2.4,17.1c-1.6,4.8-4.3,9.7-8.1,14.7l-7.3-5.8
		c1.8-2.7,3.2-5,4-7c0.9-2,1.7-4.6,2.6-7.8h-7.5V6.3z"/>
	<path id="XMLID_22_" class="st0" d="M815.7,9.1h31v110.8h-20.6v-91h-22.4L815.7,9.1z"/>
	<path id="XMLID_24_" class="st0" d="M940.3,59.8c4.9,3.2,8.7,7.4,11.4,12.4c2.7,5.1,4,10.5,4,16.4c0,6.4-1.6,12.3-4.7,17.7
		c-3.1,5.4-7.3,9.5-12.6,12.2c-5.3,2.7-12,4.1-20.2,4.1c-8.8,0-15.8-1.3-20.9-4c-5.2-2.6-9.3-6.6-12.4-12s-4.7-11.4-4.7-18.1
		c0-5.8,1.2-11.1,3.7-15.9s6.2-9.1,11.2-12.9c-3.3-3.4-5.7-6.9-7.4-10.7c-1.7-3.8-2.5-7.8-2.5-12c0-5.8,1.4-11,4.1-15.8
		c2.7-4.7,6.6-8.4,11.5-11.1c4.9-2.6,10.6-4,17.1-4c6.4,0,12,1.3,16.8,4c4.8,2.7,8.6,6.4,11.4,11.3c2.8,4.9,4.2,10.1,4.2,15.8
		c0,4-0.7,7.6-2.2,11C946.8,51.8,944.2,55.6,940.3,59.8z M918.2,71.1c-5,0-9.2,1.5-12.6,4.6c-3.4,3.1-5.1,6.8-5.1,11
		c0,4.5,1.6,8.2,4.8,11.3c3.2,3.1,7.4,4.6,12.7,4.6c5.3,0,9.5-1.4,12.6-4.3c3.1-2.9,4.7-6.6,4.7-11.2c0-4.6-1.6-8.4-4.9-11.5
		C927.2,72.6,923.1,71.1,918.2,71.1z M917.4,26.7c-3.4,0-6.2,1.1-8.4,3.4c-2.2,2.3-3.3,5.2-3.3,8.7c0,3.6,1.2,6.5,3.5,8.9
		s5.2,3.6,8.6,3.6c3.5,0,6.4-1.2,8.6-3.5c2.2-2.4,3.4-5.4,3.4-9.2c0-3.6-1.1-6.4-3.4-8.7C924.1,27.8,921.1,26.7,917.4,26.7z"/>
</g>

</svg>
